<?xml version="1.0" encoding="UTF-8" standalone="no"?>
<!-- Created with Inkscape (http://www.inkscape.org/) -->
<svg
   xmlns:svg="http://www.w3.org/2000/svg"
   xmlns="http://www.w3.org/2000/svg"
   version="1.0"
   x="0.00000000"
   y="0.00000000"
   width="600.00000"
   height="325.00000"
   id="svg2">
  <defs
     id="defs4" />
  <g
     transform="translate(-42.95356,-159.5418)"
     id="layer1">
    <path
       d="M 316.00370,477.92595 C 314.50772,477.36968 312.94966,475.18638 312.57619,473.12300 C 312.39824,472.13986 311.86825,470.23314 311.39844,468.88584 C 310.92862,467.53853 310.27947,465.11339 309.95587,463.49663 C 309.20509,459.74560 308.54174,457.56249 307.49953,455.41282 C 307.04229,454.46971 306.37949,452.77259 306.02664,451.64144 C 305.24320,449.12993 304.63861,448.85158 302.51621,450.02528 C 301.61120,450.52574 299.98887,451.41119 298.91103,451.99294 C 297.83319,452.57468 296.20905,454.02308 295.30184,455.21159 C 294.13114,456.74528 293.29851,457.37253 292.43332,457.37253 C 291.76285,457.37253 290.23428,458.03393 289.03648,458.84231 C 287.83869,459.65069 286.66139,460.31210 286.42026,460.31210 C 285.97878,460.31210 282.86536,461.79926 274.02369,466.23346 C 271.38354,467.55754 268.84489,468.64087 268.38227,468.64087 C 267.91965,468.64087 266.77277,469.04950 265.83364,469.54893 C 264.89452,470.04837 263.24428,470.60846 262.16644,470.79359 C 261.08860,470.97871 259.10439,471.42947 257.75709,471.79527 C 249.82655,473.94847 239.49474,475.54334 232.28084,475.72791 C 230.39461,475.77618 228.13559,475.98243 227.26077,476.18625 C 226.34836,476.39883 224.97932,476.32882 224.04979,476.02204 C 222.95305,475.66008 221.40876,475.63291 219.27129,475.93794 C 216.31463,476.35988 215.99604,476.30916 214.27599,475.14272 C 212.57633,473.99011 212.43876,473.71871 212.43876,471.51821 C 212.43876,469.61862 212.93207,468.19092 214.88840,464.42875 C 216.23570,461.83778 217.33885,459.35553 217.33985,458.91265 C 217.34085,458.46978 218.33296,455.24858 219.54453,451.75444 C 220.75610,448.26030 221.74739,445.25246 221.74739,445.07035 C 221.74739,444.48454 220.09141,443.97839 217.82796,443.87237 C 216.61539,443.81558 212.53674,443.62587 208.76430,443.45080 C 196.15327,442.86554 185.68542,440.78165 177.57176,437.24115 C 175.77510,436.45715 173.89010,435.81570 173.38287,435.81570 C 172.87564,435.81570 172.23562,435.59068 171.96058,435.31565 C 171.32674,434.68180 166.42289,432.87613 165.33532,432.87613 C 164.20067,432.87613 159.74728,430.51012 158.41849,429.20133 C 157.81535,428.60726 156.77070,427.83288 156.09705,427.48050 C 155.42340,427.12811 153.65966,425.79891 152.17762,424.52671 C 148.10540,421.03106 147.28714,420.75078 141.64417,420.91866 C 138.94957,420.99883 135.20162,421.28960 133.31540,421.56481 C 128.13925,422.32004 116.74160,423.02912 116.03901,422.63962 C 115.69865,422.45092 113.49398,422.49011 111.13973,422.72669 C 108.78549,422.96327 104.54438,423.03628 101.71505,422.88894 C 98.885720,422.74159 94.476360,422.55539 91.916490,422.47515 C 88.924280,422.38137 86.881478,422.07898 86.196137,421.62839 C 85.328478,421.05793 84.885213,421.03908 83.814145,421.52709 C 82.818391,421.98079 82.332717,421.98935 81.818132,421.56228 C 80.886290,420.78892 80.938584,420.60063 82.567958,418.86240 C 83.900587,417.44073 84.274917,417.32390 88.322348,417.06648 C 91.762710,416.84766 93.201330,416.97560 95.330380,417.68972 C 97.043360,418.26429 98.296660,418.43455 98.806090,418.16191 C 99.747940,417.65785 103.86162,417.52258 109.30893,417.81655 C 111.46461,417.93289 113.71658,417.84984 114.31331,417.63199 C 115.47258,417.20878 126.48182,417.11210 131.35569,417.48234 C 136.34704,417.86150 140.53614,417.85404 143.61027,417.46052 C 146.30349,417.11575 146.82888,417.21328 149.73437,418.59726 C 153.86134,420.56307 155.96300,421.80098 157.29003,423.04766 C 157.88119,423.60304 158.86474,424.05743 159.47568,424.05743 C 160.08662,424.05743 161.86174,424.80484 163.42039,425.71833 C 164.97904,426.63183 166.77988,427.53904 167.42225,427.73436 C 168.06463,427.92967 169.03114,428.46472 169.57006,428.92335 C 170.10899,429.38199 172.31366,430.27990 174.46934,430.91871 C 176.62503,431.55753 178.65810,432.28109 178.98729,432.52662 C 179.58446,432.97205 180.88921,433.35070 185.98265,434.55672 C 187.46468,434.90764 190.66146,435.76047 193.08660,436.45190 C 196.90400,437.54028 201.15693,438.33575 209.25422,439.47592 C 210.33207,439.62769 213.79754,439.73106 216.95527,439.70562 C 223.71545,439.65116 224.45699,439.82900 225.44618,441.74188 C 226.16503,443.13199 226.10483,443.40208 223.92477,448.56691 C 221.84382,453.49694 221.16832,455.73491 219.74695,462.40817 C 219.47270,463.69574 218.80286,465.50421 218.25841,466.42699 C 217.71288,467.35159 217.33909,468.71995 217.42575,469.47515 C 217.56468,470.68593 217.81126,470.86576 219.54271,471.01910 C 220.62055,471.11456 223.92757,470.95395 226.89163,470.66219 C 229.85569,470.37043 234.97448,469.91806 238.26670,469.65693 C 241.55892,469.39579 244.72079,468.93155 245.29307,468.62528 C 245.86534,468.31900 248.57316,467.76977 251.31044,467.40477 C 254.04771,467.03977 257.69395,466.28670 259.41318,465.73129 C 261.13241,465.17588 262.77143,464.72145 263.05544,464.72145 C 263.33945,464.72145 264.46818,464.30965 265.56374,463.80634 C 269.09272,462.18508 275.33488,459.88267 277.50649,459.40126 C 278.66809,459.14376 280.43472,458.39292 281.43234,457.73272 C 282.42996,457.07253 283.76597,456.36740 284.40125,456.16577 C 285.03654,455.96414 286.46668,455.19001 287.57936,454.44547 C 289.77237,452.97804 295.91955,449.24803 298.09639,448.06390 C 298.83943,447.65971 300.40050,446.39202 301.56544,445.24681 C 303.69779,443.15056 305.57510,442.57429 306.35352,443.77703 C 306.88572,444.59932 308.82209,449.68653 309.75686,452.71821 C 311.23049,457.49758 314.82667,467.12249 315.73831,468.72712 C 316.99420,470.93769 317.98993,470.72401 322.39742,467.29808 C 324.39393,465.74620 327.31191,463.53885 328.88182,462.39284 C 331.55040,460.44483 338.58631,453.74948 344.67084,447.36805 C 347.29717,444.61357 349.43368,441.65748 351.32728,438.15818 C 352.17593,436.58991 354.99987,432.23692 357.93228,427.97685 C 358.39599,427.30320 359.15286,426.02208 359.61420,425.12993 C 360.29352,423.81624 360.70306,423.53678 361.76811,423.66014 C 362.58161,423.75437 363.14859,424.15693 363.25462,424.71559 C 363.43213,425.65093 360.79711,431.52034 359.55384,432.95893 C 359.16517,433.40865 358.23265,435.07600 357.48158,436.66415 C 355.71463,440.40037 351.74190,445.99450 347.96134,450.06991 C 346.31294,451.84687 344.51947,454.05046 343.97585,454.96679 C 343.43222,455.88311 341.89865,457.40555 340.56792,458.34998 C 338.41524,459.87776 336.31937,461.78890 334.58716,463.80360 C 334.26897,464.17368 332.41823,465.79929 330.47440,467.41605 C 328.53058,469.03281 325.04297,472.02299 322.72416,474.06088 C 318.05512,478.16428 317.50127,478.48280 316.00370,477.92595 z M 72.809300,421.18473 C 72.809300,419.33529 73.048424,416.63456 73.340685,415.18312 C 74.119072,411.31746 74.143539,383.30749 73.373804,377.26931 C 72.940453,373.86988 72.850548,369.59531 73.080131,363.30637 C 73.262113,358.32135 73.384067,352.25849 73.351140,349.83335 C 73.298298,345.94150 73.885507,340.21814 74.596065,337.69942 C 74.730371,337.22334 75.727746,336.38106 76.812453,335.82769 C 78.681271,334.87429 79.507606,334.82755 92.577010,334.93609 C 112.76804,335.10376 114.42595,335.04163 114.78582,334.10382 C 114.95186,333.67113 114.61829,331.96251 114.04455,330.30688 C 113.47081,328.65126 112.94222,326.09291 112.86990,324.62164 C 112.74565,322.09354 112.81745,321.90803 114.17720,321.24405 C 115.43033,320.63214 116.59865,320.63828 123.23196,321.29165 C 127.97019,321.75835 131.27990,321.87758 131.99109,321.60718 C 132.61981,321.36814 134.30545,321.17256 135.73694,321.17256 C 139.43579,321.17256 139.84230,320.51760 138.55293,316.63548 C 137.99454,314.95424 137.18699,311.81494 136.75836,309.65926 C 136.32972,307.50358 135.67862,304.63750 135.31144,303.29019 C 134.94426,301.94289 134.26920,297.75401 133.81129,293.98156 C 133.35339,290.20912 132.81749,285.87517 132.62040,284.35057 C 132.19289,281.04352 134.04327,259.61688 135.28663,253.47674 C 135.74088,251.23350 136.64064,247.77159 137.28609,245.78361 C 137.93154,243.79563 138.45964,241.79911 138.45964,241.34691 C 138.45964,239.54476 140.58733,234.14642 141.69984,233.12590 C 143.14710,231.79832 143.78570,232.01145 145.77400,234.48561 C 147.09986,236.13548 147.60080,236.41503 149.23134,236.41503 C 150.75464,236.41503 151.59744,236.81253 153.42153,238.39126 C 154.67737,239.47818 156.83526,240.94030 158.21684,241.64039 C 159.59842,242.34050 161.80259,243.81874 163.11499,244.92537 L 165.50119,246.93744 L 166.37501,245.85832 C 166.85560,245.26481 167.39798,243.78452 167.58030,242.56880 C 168.43323,236.88105 176.55390,219.83885 182.67781,210.88487 C 184.89966,207.63623 194.50846,195.05366 197.45060,191.83159 C 204.62223,183.97759 215.83281,174.68411 218.13533,174.68411 C 219.93521,174.68411 221.13665,176.80003 223.69906,184.48267 C 225.09211,188.65931 226.96287,193.61983 227.85630,195.50605 C 228.74974,197.39227 229.60779,199.32136 229.76307,199.79292 C 230.24966,201.27055 231.48222,200.76149 236.61095,196.96467 C 245.94950,190.05130 245.81755,190.13600 253.75890,185.95829 C 259.71514,182.82489 266.35772,179.93264 272.45493,177.81784 C 275.54711,176.74533 288.32167,173.64664 291.56211,173.18306 C 293.17888,172.95177 295.71425,172.52825 297.19628,172.24190 C 301.92025,171.32919 307.71511,171.08121 308.94451,171.73917 L 310.06475,172.33870 L 308.65228,173.49388 C 307.08097,174.77897 305.78280,175.11202 301.11571,175.42744 C 299.36422,175.54581 296.82884,175.84753 295.48154,176.09794 C 294.13424,176.34834 291.48862,176.80927 289.60240,177.12222 C 284.24919,178.01040 270.05410,182.60975 267.38466,184.32100 C 266.75169,184.72676 265.09819,185.46171 263.71020,185.95421 C 262.32221,186.44671 259.97401,187.51308 258.49198,188.32393 C 257.00995,189.13477 254.58480,190.40514 253.10277,191.14696 C 245.98415,194.71018 241.17423,198.02847 237.19016,202.12485 C 232.42019,207.02929 230.61233,207.82849 227.69758,206.32121 C 226.16748,205.52996 225.17688,203.70524 225.17688,201.67796 C 225.17688,200.92123 223.65883,195.69550 221.80343,190.06522 C 217.25330,176.25764 218.44813,176.25561 204.26028,190.09498 C 200.40517,193.85540 174.48432,233.52259 173.88004,235.92510 C 173.57507,237.13768 172.86637,239.86632 172.30518,241.98876 C 171.74398,244.11120 171.28481,246.26954 171.28481,246.78508 C 171.28481,248.14351 169.50174,251.43018 168.57101,251.78734 C 167.05466,252.36921 165.64211,252.05393 163.82998,250.72915 C 162.82861,249.99708 160.73417,248.45378 159.17566,247.29958 C 154.78251,244.04611 149.06519,240.33446 148.44679,240.33446 C 148.13959,240.33446 147.61379,240.00375 147.27834,239.59956 C 145.57998,237.55316 143.80335,239.42752 141.76458,245.41664 C 139.58149,251.82972 138.92030,254.45804 138.64443,257.81962 C 138.49383,259.65485 138.05186,262.78464 137.66226,264.77473 C 136.76860,269.33966 136.66008,283.09489 137.45502,291.04200 C 138.00798,296.56992 140.10026,309.26696 140.72470,310.88408 C 141.63059,313.23006 143.34766,320.18465 143.35284,321.52872 C 143.35709,322.63549 143.02828,323.32270 142.25658,323.81987 C 141.13190,324.54443 131.06130,325.74642 127.75465,325.55076 C 123.33558,325.28928 118.50598,325.62133 117.65264,326.24531 C 116.77018,326.89058 116.77094,327.00716 117.68055,330.51422 C 118.35588,333.11798 118.99840,334.46072 119.99310,335.34701 C 120.87270,336.13073 121.28485,336.90181 121.13350,337.48057 C 120.82529,338.65914 121.68370,341.12276 123.04772,342.97436 C 123.64323,343.78274 124.39304,345.26401 124.71397,346.26607 C 125.30888,348.12362 129.16118,354.34145 132.30602,358.52008 C 133.26537,359.79481 134.05029,361.09758 134.05029,361.41513 C 134.05029,361.73269 134.93216,363.16054 136.01000,364.58813 C 137.08784,366.01572 137.96971,367.37398 137.96971,367.60650 C 137.96971,367.83901 138.90670,368.90555 140.05191,369.97657 C 141.19711,371.04760 144.08426,373.96198 146.46780,376.45297 C 148.85133,378.94396 151.93788,381.82798 153.32679,382.86189 C 154.71570,383.89580 156.35022,385.32430 156.95904,386.03632 C 157.56787,386.74835 159.25501,388.09152 160.70825,389.02114 C 163.46390,390.78392 165.40568,392.84296 165.40568,394.00228 C 165.40568,394.94804 159.60522,400.48761 157.77279,401.29186 C 156.94296,401.65607 155.99693,402.27587 155.67051,402.66919 C 155.34408,403.06251 154.54124,403.51879 153.88642,403.68313 C 153.23160,403.84749 152.46105,404.42065 152.17410,404.95683 C 151.88714,405.49302 150.94379,406.22955 150.07776,406.59356 C 149.21173,406.95757 147.18036,408.35742 145.56360,409.70434 C 142.21304,412.49566 140.88956,413.27902 139.52412,413.27902 C 137.11967,413.27902 138.27023,410.46622 141.30910,408.91524 C 142.30177,408.40860 143.53394,407.52968 144.04727,406.96209 C 144.56058,406.39449 145.25624,405.93010 145.59317,405.93010 C 145.93011,405.93010 147.12937,405.15846 148.25820,404.21535 C 149.38703,403.27224 150.61271,402.50060 150.98192,402.50060 C 151.35113,402.50060 151.88798,402.06195 152.17491,401.52582 C 152.46184,400.98968 153.39379,400.19050 154.24592,399.74985 C 156.28255,398.69666 161.05229,394.16881 160.70946,393.61410 C 160.56210,393.37567 159.29868,392.43671 157.90184,391.52753 C 153.44107,388.62407 139.23587,374.12698 135.80226,368.97384 C 134.89233,367.60822 132.68183,364.83739 130.89006,362.81644 C 129.00266,360.68764 126.93209,357.67652 125.96774,355.65818 C 125.05225,353.74209 123.73745,351.50201 123.04595,350.68021 C 122.35446,349.85842 121.44980,348.33958 121.03561,347.30502 C 119.97798,344.66334 119.15879,342.79421 118.06396,340.52472 C 117.13458,338.59817 117.07738,338.56688 114.68354,338.67564 C 113.34427,338.73649 107.94938,338.98684 102.69490,339.23198 C 97.440430,339.47711 90.338080,339.58888 86.911908,339.48034 L 80.682517,339.28300 L 79.173096,340.63875 C 77.767087,341.90162 77.629425,342.33015 77.163742,346.89378 C 76.746089,350.98673 76.606177,357.42898 76.687594,368.81806 C 76.694818,369.82853 76.681636,371.81274 76.658302,373.22741 C 76.634968,374.64207 76.946552,379.54748 77.350710,384.12830 C 77.932239,390.71949 77.987447,394.45019 77.615337,402.01067 C 77.356724,407.26515 77.089955,413.76894 77.022518,416.46355 C 76.872690,422.45025 76.133123,424.54736 74.171673,424.54736 C 72.814125,424.54736 72.809300,424.53545 72.809300,421.18473 z M 611.71217,422.85407 C 612.96932,421.33933 611.78943,420.97587 606.88525,421.36715 C 596.21031,422.21884 576.37553,421.62465 574.02050,420.38263 C 572.93251,419.80883 572.58226,419.85090 571.15927,420.72629 C 569.66754,421.64398 569.29514,421.67599 566.50495,421.12640 C 564.30581,420.69322 556.13230,420.55496 536.77103,420.62344 C 522.08544,420.67537 506.65271,420.69029 502.47608,420.65659 C 484.39291,420.51066 476.46035,420.55470 464.01674,420.87008 C 456.74131,421.05448 449.46588,421.29648 447.84912,421.40786 C 444.97109,421.60612 437.59179,421.58652 421.88294,421.33887 C 415.58889,421.23965 405.68210,421.20644 391.99733,421.23870 C 387.60690,421.24905 376.82516,420.51648 375.83667,420.14065 C 374.36928,419.58275 374.19058,417.94457 375.51954,417.23334 C 376.02259,416.96412 377.95168,416.71353 379.80640,416.67648 C 389.37182,416.48544 391.12798,416.36685 392.39668,415.82633 C 394.27548,415.02587 395.00368,415.07806 398.34579,416.25272 C 401.12703,417.23025 401.30983,417.23653 403.42845,416.42742 C 405.25061,415.73154 405.90153,415.68773 407.23813,416.17105 C 408.35066,416.57334 411.09697,416.67064 416.10144,416.48505 C 426.50822,416.09913 481.96061,416.10591 499.29155,416.49524 C 517.25868,416.89885 514.33168,416.87043 530.15701,416.79489 C 551.65744,416.69226 569.85905,417.04277 570.86918,417.57890 C 571.47468,417.90025 573.41705,417.92311 576.41688,417.64418 C 582.25212,417.10163 616.94827,417.45947 618.58899,418.07912 C 619.87251,418.56387 623.63902,417.73358 624.62383,416.74880 C 624.91519,416.45743 625.15932,413.14299 625.20498,408.85920 L 625.28371,401.47205 L 623.52031,399.41420 C 621.37188,396.90697 619.56885,393.30336 619.56885,391.51665 C 619.56885,390.75899 620.30163,389.23395 621.28360,387.94788 C 622.95695,385.75638 623.42326,383.61239 623.06605,379.75279 C 622.93637,378.35182 624.38077,374.32799 625.54425,372.84882 C 626.42808,371.72522 626.46850,371.46582 625.85506,370.85239 C 625.12630,370.12365 624.45387,370.10859 564.80010,369.48562 C 555.56045,369.38912 547.88862,369.19807 547.75159,369.06105 C 547.53539,368.84480 547.48061,365.66227 547.56419,358.16212 C 547.57620,357.08428 547.58879,347.85259 547.59222,337.64726 C 547.59746,322.05193 547.46841,318.53515 546.78330,315.60051 C 544.88463,307.46775 541.71965,301.50478 536.08855,295.45135 C 533.19376,292.33944 532.31598,291.65525 531.82805,292.13050 C 531.33846,292.60738 531.72865,293.27375 533.74731,295.40819 C 536.48200,298.29972 536.65444,298.69599 535.56972,299.59622 C 534.48953,300.49271 532.95501,299.74999 531.37175,297.56436 C 530.58760,296.48187 529.00139,294.98527 527.84684,294.23859 C 525.19937,292.52638 522.28234,289.48312 521.63218,287.75501 C 520.98263,286.02853 517.71299,284.36239 514.23435,283.98523 C 511.96375,283.73905 511.53974,283.53890 511.53974,282.71322 C 511.53974,282.00849 511.91804,281.68984 512.88705,281.57834 C 514.84759,281.35276 514.55460,280.38704 511.71811,277.72542 C 510.33418,276.42680 508.47060,274.66552 507.57682,273.81146 C 506.68304,272.95740 504.89415,271.54752 503.60151,270.67839 C 502.30887,269.80926 500.58986,268.50617 499.78147,267.78262 C 497.85821,266.06121 492.58151,262.40947 489.49299,260.66249 C 488.14569,259.90040 485.53361,258.26672 483.68837,257.03210 C 481.84313,255.79748 480.07939,254.65775 479.76895,254.49937 C 479.45850,254.34099 478.32263,253.76867 477.24479,253.22754 C 476.16695,252.68641 473.30087,251.24080 470.87573,250.01506 C 461.77119,245.41340 456.97278,243.26260 452.50343,241.78001 C 451.02140,241.28839 447.60415,240.09915 444.90955,239.13726 C 439.87193,237.33899 430.74326,234.81196 427.27214,234.25482 C 426.19430,234.08181 423.98963,233.63237 422.37287,233.25606 C 418.71805,232.40537 407.55195,231.08292 402.17019,230.86336 C 398.15454,230.69952 398.12627,230.70691 396.29106,232.39830 C 395.27681,233.33307 393.30556,234.94504 391.91049,235.98048 C 390.51542,237.01591 389.23378,238.08995 389.06241,238.36724 C 388.79728,238.79621 383.04276,242.80187 379.19800,245.23374 C 377.50872,246.30222 377.70816,247.51989 379.62666,247.85088 C 380.50240,248.00197 382.43149,248.33625 383.91352,248.59371 C 386.31169,249.01034 392.68504,251.13088 400.57107,254.13599 C 404.45113,255.61455 414.62961,260.74763 416.47993,262.15894 C 417.34677,262.82011 418.22950,263.36107 418.44155,263.36107 C 419.24831,263.36107 427.52636,268.36388 427.93866,269.10062 C 428.17656,269.52573 429.48113,270.66803 430.83769,271.63907 C 437.93321,276.71808 447.64417,285.58166 450.21693,289.32725 C 451.04981,290.53982 453.50339,293.73824 455.66933,296.43485 C 457.83526,299.13147 459.98278,301.99754 460.44160,302.80392 C 460.90042,303.61029 461.82497,305.26215 462.49615,306.47473 C 463.16733,307.68730 464.23780,309.31397 464.87496,310.08955 C 465.92565,311.36851 466.13260,311.43777 467.09936,310.83402 C 468.01308,310.26339 468.27430,310.27736 468.92876,310.93182 C 469.57874,311.58179 469.60495,312.02171 469.10506,313.89074 C 468.47939,316.23006 468.69101,317.89358 469.80865,319.42164 C 470.45952,320.31153 470.49780,320.28360 470.48020,318.93171 C 470.43559,315.50650 472.88133,307.86179 475.42489,303.47595 C 477.77202,299.42879 486.09125,291.53822 489.61815,290.01401 C 491.16607,289.34504 493.31443,288.38308 494.39227,287.87632 C 497.13598,286.58631 501.64349,286.11937 502.41213,287.04552 C 503.32043,288.13996 501.95334,289.16330 498.67881,289.84009 C 497.12959,290.16029 495.31088,290.80902 494.63723,291.28171 C 493.96358,291.75441 492.26161,292.72094 490.85507,293.42957 C 487.28035,295.23055 481.22849,300.65125 479.11042,303.94934 C 478.13188,305.47303 476.36160,308.80307 475.17644,311.34943 C 473.09217,315.82758 473.01882,316.14839 472.93599,321.14798 C 472.82267,327.98783 474.63075,334.85786 478.07360,340.66895 C 480.09505,344.08090 485.55034,349.92258 488.23315,351.54810 C 489.34498,352.22175 491.36093,353.46513 492.71305,354.31118 C 496.34169,356.58168 500.68639,357.50820 507.63870,357.49410 C 510.88233,357.48752 514.14858,357.24931 514.89703,356.96476 C 515.64548,356.68020 516.73955,356.44180 517.32829,356.43498 C 518.48785,356.42154 524.54612,353.51460 527.70737,351.45478 C 534.48351,347.03954 541.11439,335.85797 542.16499,327.07497 C 542.94608,320.54549 542.40902,314.31497 540.87614,312.12237 C 540.00799,310.88055 540.00774,309.10318 540.87570,308.77010 C 541.66556,308.46700 542.65017,309.31260 542.65017,310.29406 C 542.65017,310.67015 542.95084,311.56304 543.31833,312.27827 C 544.54320,314.66222 545.51972,318.14999 545.25051,319.17940 C 545.10422,319.73890 545.24081,321.21459 545.55407,322.45868 C 546.46636,326.08170 544.70022,335.06670 542.22241,339.40831 C 538.05709,346.70666 536.73482,348.52851 533.94486,350.81320 C 527.93147,355.73756 526.29118,356.87604 524.08192,357.65881 C 522.84239,358.09799 520.88503,358.94086 519.73222,359.53186 C 517.80098,360.52192 516.93438,360.60642 508.70884,360.60667 C 499.47746,360.60695 497.17495,360.23919 492.24121,357.97642 C 487.07514,355.60709 481.72917,351.51390 479.71400,348.38486 C 479.18585,347.56477 478.47433,346.72027 478.13285,346.50821 C 477.09415,345.86316 473.68348,339.75398 472.33066,336.11537 C 471.62937,334.22914 470.50391,330.97725 469.82963,328.88893 C 469.15536,326.80061 468.40154,325.09199 468.15449,325.09199 C 467.90744,325.09199 467.45945,326.06837 467.15896,327.26173 C 466.72886,328.96981 465.86734,330.15295 463.11000,332.82222 C 461.09818,334.76978 458.57768,336.66700 457.18810,337.27970 C 453.90613,338.72683 447.81479,339.28530 435.26517,339.28963 C 409.35233,339.29857 405.92798,339.42467 405.41189,340.38900 C 405.14966,340.87897 405.08352,341.51999 405.26491,341.81347 C 405.56084,342.29232 405.92463,344.96075 407.39916,357.46856 C 408.41871,366.11705 407.62921,387.65301 406.13668,391.90627 C 405.77020,392.95062 405.47035,394.36257 405.47035,395.04394 C 405.47035,396.16285 404.84510,398.53622 401.97799,408.30046 C 401.47650,410.00835 400.60907,412.04768 400.05038,412.83229 C 398.97290,414.34547 397.42242,414.71754 396.98157,413.56871 C 396.70355,412.84420 397.63945,408.76916 398.45980,407.13232 C 398.72366,406.60582 399.22150,404.85225 399.56611,403.23549 C 399.91072,401.61873 400.47893,399.30382 400.82881,398.09125 C 403.65671,388.29048 404.94052,369.81520 403.62041,357.91716 C 402.83779,350.86343 401.18786,341.95711 400.35812,340.30728 C 400.01170,339.61849 399.60181,337.93309 399.44724,336.56195 C 399.29267,335.19080 398.26973,332.12854 397.17403,329.75692 C 395.07422,325.21188 394.85859,324.16184 395.70158,322.58669 C 396.51203,321.07236 398.34569,320.60163 400.91450,321.24846 C 402.72308,321.70387 403.35704,321.68225 404.19117,321.13671 C 404.96845,320.62834 407.38291,320.45434 413.90977,320.43633 C 419.97545,320.41959 422.77117,320.23534 423.18120,319.82531 C 423.92661,319.07990 421.91223,312.80940 419.20712,307.45458 C 418.18620,305.43363 417.18422,303.22895 416.98052,302.55530 C 416.77681,301.88165 416.23100,300.77931 415.76761,300.10566 C 415.30421,299.43201 413.65530,296.45676 412.10335,293.49399 C 410.55141,290.53122 408.09826,286.45257 406.65191,284.43032 C 405.20557,282.40808 403.52127,280.03171 402.90904,279.14951 C 398.51787,272.82201 391.42112,264.83929 387.13068,261.40136 C 385.61742,260.18879 383.22728,258.23895 381.81925,257.06840 C 380.41123,255.89783 378.09918,254.19030 376.68136,253.27387 C 373.80348,251.41371 372.15984,249.13290 372.15709,246.99571 C 372.15501,245.38531 375.04833,242.36396 378.08676,240.80362 C 380.25085,239.69229 389.26393,232.55162 391.79644,229.94204 C 392.81325,228.89429 394.37675,227.81599 395.27090,227.54580 C 398.76372,226.49038 411.39797,227.19107 418.69841,228.84509 C 425.12671,230.30152 426.36091,230.54299 429.79114,231.01534 C 431.71550,231.28033 434.80205,232.02158 436.65013,232.66256 C 438.49821,233.30354 441.33308,234.17231 442.94984,234.59316 C 448.58983,236.06128 455.24888,238.22473 456.44380,238.97721 C 457.10593,239.39417 458.51159,240.00973 459.56749,240.34511 C 460.62339,240.68049 462.16667,241.35094 462.99699,241.83501 C 463.82731,242.31908 466.17168,243.37245 468.20670,244.17584 C 472.57625,245.90085 477.71005,248.36708 484.98964,252.23821 C 491.92838,255.92807 492.41393,256.26166 500.51637,262.90543 C 501.45948,263.67876 503.55392,265.31110 505.17068,266.53286 C 510.56289,270.60767 512.47733,272.24356 518.74594,278.13295 C 524.09130,283.15494 525.58171,284.26761 529.27939,285.99671 C 535.76916,289.03144 539.66940,292.19100 543.75961,297.72705 C 546.88643,301.95919 547.44014,302.97933 549.43836,308.18947 C 551.37382,313.23586 552.18828,319.76376 551.73059,326.56177 C 551.54010,329.39111 551.40185,332.03672 551.42331,332.44091 C 551.44481,332.84510 551.47151,340.38784 551.48269,349.20255 C 551.49591,359.65564 551.67856,365.33784 552.00794,365.54140 C 552.28568,365.71306 566.00209,365.94031 582.48890,366.04640 C 624.50531,366.31678 628.72560,366.44657 629.89442,367.50431 C 631.72318,369.15931 630.72632,373.86722 627.67613,377.98086 C 626.47820,379.59646 626.43607,379.87231 626.73571,384.13540 L 627.04946,388.59854 L 625.51383,390.34752 C 623.29676,392.87262 623.46172,394.34341 626.24902,396.90240 C 628.31950,398.80335 628.57059,399.28326 629.09555,402.34389 C 629.45231,404.42371 629.53506,407.09536 629.31312,409.36731 C 629.11607,411.38402 629.06816,414.57732 629.20666,416.46355 C 629.59581,421.76450 629.22332,422.02478 622.07488,421.44670 C 618.32620,421.14355 616.62928,421.58078 616.62928,422.84985 C 616.62928,423.39501 615.96719,423.56750 613.87471,423.56750 C 611.51855,423.56750 611.20573,423.46431 611.71217,422.85407 z M 427.29276,336.09800 C 446.57018,335.87726 449.41045,335.74425 452.67479,334.90937 C 456.92355,333.82272 459.52379,332.11846 462.11771,328.72023 C 464.09262,326.13297 464.69694,324.00858 464.73029,319.53618 C 464.75000,316.89313 464.53225,316.31410 461.87452,311.94229 C 460.29211,309.33932 458.61991,306.46789 458.15851,305.56132 C 457.69711,304.65476 456.48557,303.00125 455.46620,301.88686 C 454.44682,300.77247 452.50140,298.20719 451.14302,296.18624 C 448.53983,292.31326 438.84825,282.10808 436.30402,280.56084 C 435.48046,280.06000 433.35005,278.35519 431.56980,276.77237 C 425.91630,271.74587 413.94585,264.83553 400.32611,258.73589 C 398.70935,258.01182 396.76239,257.10277 395.99954,256.71577 C 395.23668,256.32878 394.16102,256.01215 393.60917,256.01215 C 393.05732,256.01215 391.07784,255.46098 389.21033,254.78733 C 385.79395,253.55497 383.90908,253.24958 383.91874,253.92996 C 383.92615,254.45188 386.50616,256.84571 390.77252,260.28915 C 392.79347,261.92029 394.99814,263.85138 395.67179,264.58046 C 396.34545,265.30955 397.71325,266.32486 398.71136,266.83673 C 400.09484,267.54622 400.59897,268.15583 400.83274,269.40193 C 401.01677,270.38285 402.41121,272.58744 404.31994,274.91513 C 408.03821,279.44954 416.49136,292.03553 417.56466,294.63534 C 417.97243,295.62306 418.58774,296.76191 418.93201,297.16610 C 419.71662,298.08724 424.08761,308.14804 424.08761,309.03283 C 424.08761,309.39218 424.39612,310.12665 424.77318,310.66498 C 425.15024,311.20331 426.05550,313.62239 426.78487,316.04072 C 427.51425,318.45904 428.30808,320.64712 428.54895,320.90310 C 429.18759,321.58183 429.08429,323.42145 428.37448,324.01009 C 427.99015,324.32882 423.04717,324.53605 415.10203,324.56654 C 407.12026,324.59716 402.07909,324.80933 401.45992,325.14070 C 400.30429,325.75917 400.49260,327.65340 402.05103,331.08686 C 402.57252,332.23578 403.00404,333.73799 403.00995,334.42511 C 403.02274,335.90974 403.94643,336.97587 404.90216,336.60912 C 405.27848,336.46471 415.35425,336.23471 427.29276,336.09800 z M 157.17489,420.52995 C 156.30325,419.65831 156.45943,418.77096 157.59106,418.16533 C 159.09011,417.36306 161.19961,417.75798 161.41286,418.88080 C 161.74705,420.64042 158.53521,421.89027 157.17489,420.52995 z M 239.18985,420.68089 C 237.14861,420.36245 236.10136,419.29112 236.58904,418.02026 C 236.83615,417.37630 237.68878,417.25005 241.44381,417.30138 C 246.14493,417.36565 248.69342,418.10284 248.69342,419.39846 C 248.69342,420.97681 244.61471,421.52720 239.18985,420.68089 z M 293.62372,420.81751 C 293.41029,420.60077 292.19772,420.30410 290.92911,420.15824 C 288.86611,419.92105 288.62255,419.76371 288.62255,418.66822 L 288.62255,417.44340 L 293.71339,417.44340 C 298.00815,417.44340 298.88790,417.57604 299.33926,418.29159 C 299.75041,418.94339 299.68939,419.32466 299.07570,419.93834 C 298.20248,420.81157 294.24610,421.44956 293.62372,420.81751 z M 310.97342,420.62671 C 308.74016,420.09948 307.63941,418.25621 309.04066,417.39019 C 310.10355,416.73328 320.82379,417.07687 321.27110,417.78217 C 321.87155,418.72895 321.79380,419.05703 320.71282,420.13801 C 319.90157,420.94926 319.12179,421.10923 316.18099,421.06771 C 314.22740,421.04013 311.88400,420.84168 310.97342,420.62671 z M 173.02458,420.24468 C 172.87609,420.09619 172.75460,419.46027 172.75460,418.83153 C 172.75460,417.80900 172.97965,417.68837 174.88740,417.68837 C 176.06045,417.68837 178.35209,417.54916 179.97995,417.37901 C 182.68920,417.09584 182.98840,417.16068 183.51531,418.14522 C 184.58197,420.13829 183.50360,420.62141 178.11402,420.56506 C 175.46331,420.53734 173.17307,420.39317 173.02458,420.24468 z M 223.39295,419.88942 C 223.22007,419.43889 223.42075,418.74461 223.84708,418.31827 C 224.88775,417.27760 226.26802,417.87416 226.06862,419.27844 C 225.87540,420.63914 223.85746,421.09992 223.39295,419.88942 z M 261.46169,419.92937 C 261.13115,419.53108 260.93775,418.80881 261.03192,418.32431 C 261.18761,417.52329 261.79768,417.45161 267.75945,417.53395 C 274.58841,417.62826 276.12607,418.06811 275.15004,419.64808 C 274.48040,420.73207 262.33501,420.98165 261.46169,419.92937 z M 329.89897,420.12586 C 328.74008,419.41424 328.81542,417.84389 330.03990,417.18857 C 330.58897,416.89471 332.29759,416.67908 333.83684,416.70937 C 335.37609,416.73967 338.01395,416.61510 339.69876,416.43255 C 341.85016,416.19944 342.98042,416.28189 343.49570,416.70952 C 344.25768,417.34191 344.50404,419.42685 343.86192,419.80884 C 342.95716,420.34707 330.71200,420.62509 329.89897,420.12586 z M 352.76731,419.97644 C 352.60669,419.55786 352.55093,418.81669 352.64341,418.32939 C 352.97986,416.55656 358.92720,417.07579 358.92720,418.87800 C 358.92720,419.68153 358.27916,419.95474 355.32102,420.39834 C 353.51301,420.66947 353.00078,420.58484 352.76731,419.97644 z M 194.81916,419.42457 C 193.77124,418.16191 194.77647,417.68837 198.50473,417.68837 C 202.20856,417.68837 202.96407,418.14838 201.56236,419.55009 C 200.70742,420.40503 195.55325,420.30909 194.81916,419.42457 z M 217.33804,419.50110 C 217.33804,418.45606 218.42347,417.68837 219.90103,417.68837 C 221.44721,417.68837 222.30067,418.99711 221.20637,419.69002 C 220.13424,420.36889 217.33804,420.23233 217.33804,419.50110 z M 364.49045,416.45537 C 364.10316,415.44614 364.43102,414.16430 366.18001,409.84952 C 366.99920,407.82857 368.05564,404.74202 368.52765,402.99053 C 369.65827,398.79517 370.45615,397.25021 371.69531,396.85691 C 373.44853,396.30046 375.12341,397.07082 377.97454,399.74502 C 379.48949,401.16596 381.44551,402.82320 382.32126,403.42779 C 385.63799,405.71755 383.32460,407.87913 379.59411,405.97598 C 378.50337,405.41952 377.45884,404.71813 377.27293,404.41733 C 377.08702,404.11652 376.17093,403.55119 375.23717,403.16104 C 373.19531,402.30790 372.39553,402.78098 371.96064,405.09911 C 371.79723,405.97017 371.25583,407.45047 370.75751,408.38867 C 370.25920,409.32686 369.47118,411.24915 369.00636,412.66039 C 367.89883,416.02290 365.19606,418.29419 364.49045,416.45537 z M 390.74571,413.98160 C 390.39551,413.55965 389.43153,412.86748 388.60352,412.44346 C 387.77551,412.01943 386.98782,411.53283 386.85309,411.36211 C 386.71836,411.19139 385.98888,410.65741 385.23203,410.17549 C 384.11964,409.46718 383.88493,409.00070 384.00721,407.74118 C 384.21097,405.64253 385.37162,405.51961 387.48264,407.37311 C 388.42011,408.19621 389.42593,408.86966 389.71781,408.86966 C 390.62256,408.86966 393.71208,411.86475 393.71208,412.74185 C 393.71208,414.54270 391.85537,415.31867 390.74571,413.98160 z M 266.57579,362.32321 C 259.42279,360.93513 257.01215,360.14737 253.00501,357.88847 C 250.64299,356.55695 248.46081,355.46752 248.15573,355.46752 C 247.03462,355.46752 239.79704,347.83124 237.64381,344.37653 C 236.42307,342.41794 234.73177,338.76584 233.88535,336.26074 C 232.43605,331.97137 232.34534,331.27787 232.32830,324.35710 C 232.31372,318.43340 232.48726,316.49130 233.22318,314.34298 C 234.50464,310.60211 237.25085,304.68052 237.88644,304.28770 C 238.17932,304.10670 238.87893,303.05695 239.44114,301.95492 C 241.12781,298.64877 246.79630,293.65854 251.57639,291.27169 C 253.89793,290.11248 256.40474,288.74404 257.14707,288.23072 C 258.12910,287.55165 260.29414,287.09993 265.09493,286.57247 C 270.86689,285.93830 272.29293,285.93584 276.48336,286.55276 C 281.34664,287.26873 286.51597,289.09833 289.01050,290.98651 C 292.71326,293.78926 297.22857,297.79732 299.72507,300.49743 C 302.46485,303.46065 306.01499,309.64775 306.01499,311.45935 C 306.01499,311.97280 306.50876,313.32110 307.11226,314.45557 C 308.09765,316.30792 308.20985,317.21766 308.21263,323.37724 C 308.21640,331.71353 307.38090,334.86624 303.17830,342.37395 C 299.25806,349.37724 292.98552,355.40936 288.78141,356.21900 C 288.21603,356.32788 287.38047,356.75451 286.92460,357.16706 C 286.46873,357.57961 285.89089,357.91716 285.64050,357.91716 C 285.39011,357.91716 284.17940,358.45262 282.95002,359.10707 C 278.02143,361.73076 270.81591,363.14603 266.57579,362.32321 z M 274.96168,351.91554 C 278.66232,348.34519 286.72228,340.42934 292.87270,334.32477 C 302.65694,324.61346 304.05528,323.03592 304.05528,321.70912 C 304.05528,318.79356 305.14502,317.87601 282.31153,340.01712 C 265.91444,355.91700 266.89562,354.92115 266.06383,356.50774 C 265.29456,357.97508 265.53449,358.40709 267.11872,358.40709 C 267.88350,358.40709 270.34459,356.37006 274.96168,351.91554 z M 279.29086,357.34859 C 279.97720,357.03588 280.53874,356.59494 280.53874,356.36873 C 280.53874,356.14253 280.86168,355.95745 281.25639,355.95745 C 281.65110,355.95745 282.21918,355.49941 282.51878,354.93959 C 282.81839,354.37977 283.36120,354.03596 283.72502,354.17558 C 284.64656,354.52921 285.44912,353.41113 285.13525,352.21091 C 284.92586,351.41020 286.59038,349.56536 293.45591,342.98884 C 302.14999,334.66074 304.17717,331.97739 303.15482,330.15054 C 302.69744,329.33325 301.68039,330.25673 284.78787,346.82770 C 280.42989,351.10272 276.14776,355.15242 275.27201,355.82703 C 274.39626,356.50164 273.67974,357.24790 273.67974,357.48538 C 273.67974,358.11497 277.83095,358.01377 279.29086,357.34859 z M 278.77302,339.11814 C 288.50162,329.31760 297.83931,320.13513 299.52344,318.71266 C 302.26937,316.39335 302.58549,315.93780 302.58549,314.30009 C 302.58549,310.15734 301.94880,310.56119 290.06185,322.24374 C 268.18373,343.74565 257.02220,354.95629 257.02220,355.42876 C 257.02220,356.11895 258.54243,356.90504 259.91079,356.92240 C 260.81220,356.93384 265.18994,352.80165 278.77302,339.11814 z M 264.31645,343.20728 C 270.13991,337.27253 276.11714,331.14591 277.59917,329.59259 C 279.08120,328.03927 284.53978,322.69835 289.72934,317.72388 C 294.91890,312.74942 299.29633,308.26731 299.45696,307.76365 C 299.84723,306.53992 298.71458,304.51501 297.63979,304.51501 C 297.16641,304.51501 295.08464,306.44411 293.01363,308.80188 C 290.94263,311.15966 288.65990,313.52969 287.94090,314.06861 C 287.22190,314.60753 281.96619,319.74910 276.26154,325.49432 C 267.12081,334.70005 265.72711,335.92149 264.52206,335.78280 C 263.77000,335.69625 263.10158,335.29474 263.03670,334.89055 C 262.91140,334.11006 268.43893,328.27896 278.84343,318.21574 C 289.42831,307.97805 295.23657,301.62504 295.23657,300.28513 C 295.23657,298.77592 294.07959,298.31502 292.66067,299.25897 C 292.05647,299.66093 286.34787,305.14175 279.97490,311.43856 C 273.60194,317.73537 267.53908,323.67807 266.50188,324.64454 C 262.52301,328.35214 247.89328,343.54773 246.58190,345.33501 C 245.06432,347.40333 244.99868,349.23610 246.43239,349.50955 C 247.08732,349.63448 249.08210,347.90419 253.29139,343.56002 C 259.13025,337.53405 260.98784,336.21058 262.07750,337.30024 C 263.03893,338.26167 261.04991,341.02643 255.70973,346.15156 C 252.06063,349.65372 250.65313,351.33020 250.65313,352.17452 C 250.65313,353.65318 251.00544,353.99774 252.51735,353.99774 C 253.44823,353.99774 256.17743,351.50183 264.31645,343.20728 z M 290.23914,351.34030 C 291.95738,350.43412 297.48194,344.81145 297.06437,344.39388 C 296.88790,344.21741 295.16504,345.53445 293.23580,347.32064 C 291.30656,349.10682 289.55804,350.56824 289.35021,350.56824 C 289.14238,350.56824 288.84544,350.89894 288.69034,351.30313 C 288.34038,352.21511 288.56994,352.22062 290.23914,351.34030 z M 261.03931,325.70765 C 271.19780,315.53373 279.90627,306.79665 280.39146,306.29190 C 280.87665,305.78716 283.20587,303.47225 285.56751,301.14766 C 287.92915,298.82307 289.85824,296.65805 289.85438,296.33650 C 289.84464,295.52451 287.87844,294.22653 286.65816,294.22653 C 286.03349,294.22653 284.03909,295.86592 281.44295,298.51340 C 279.13090,300.87118 275.89271,304.06819 274.24697,305.61788 C 272.60124,307.16756 270.91620,309.09012 270.50245,309.89022 C 270.08870,310.69033 269.32750,311.57117 268.81089,311.84765 C 265.78988,313.46444 265.03501,308.91732 267.98182,306.85365 C 268.82527,306.26298 272.43992,303.01489 276.01438,299.63568 C 283.03671,292.99692 283.77261,291.67759 280.62184,291.37547 C 279.14341,291.23370 278.55296,291.64772 274.33360,295.78482 C 271.77247,298.29601 268.47262,301.84023 267.00062,303.66086 C 265.40914,305.62925 263.63866,307.25754 262.63293,307.67776 C 261.70271,308.06643 260.94162,308.63403 260.94162,308.93909 C 260.94162,309.24414 258.68183,311.75091 255.91986,314.50968 C 253.15789,317.26846 250.55023,319.95131 250.12505,320.47158 C 249.69988,320.99185 246.56266,324.06314 243.15344,327.29666 C 239.74424,330.53019 236.87503,333.39627 236.77743,333.66573 C 236.46087,334.53975 237.43578,337.34060 238.05150,337.32602 C 238.38062,337.31822 240.08294,335.75175 241.83443,333.84496 C 243.58592,331.93817 249.05747,326.30925 253.99342,321.33625 C 260.92886,314.34876 263.21077,312.32901 264.03694,312.44663 C 265.91177,312.71354 265.70704,314.93381 263.63151,316.84350 C 262.65449,317.74245 261.26382,319.13936 260.54113,319.94774 C 259.81844,320.75613 257.35311,323.17701 255.06263,325.32749 C 246.98221,332.91398 239.87472,340.30016 239.87472,341.11094 C 239.87472,341.88494 241.67777,344.19540 242.28728,344.20243 C 242.44240,344.20421 250.88082,335.88156 261.03931,325.70765 z M 247.09749,318.35548 C 253.22973,312.22526 262.10520,303.51325 266.82075,298.99546 C 274.94986,291.20729 275.34517,290.74361 274.44348,290.05428 C 273.12374,289.04537 271.54561,289.14642 270.49521,290.30710 C 269.38537,291.53347 268.60570,291.54040 266.92340,290.33884 C 265.79455,289.53257 265.21597,289.45408 263.05639,289.81423 C 260.07048,290.31220 259.31122,290.67995 256.61034,292.93648 C 255.40175,293.94623 253.78613,294.76320 252.60235,294.96319 C 249.60710,295.46924 247.71357,297.29409 247.71357,299.67466 C 247.71357,301.83004 246.75022,302.60566 245.43198,301.51162 C 244.73084,300.92972 244.67006,300.96812 244.93711,301.82425 C 245.36170,303.18543 244.77162,303.90840 243.07691,304.10336 C 241.82531,304.24735 241.57305,304.53611 241.22479,306.22344 C 241.00305,307.29781 240.18129,308.84108 239.39867,309.65293 C 237.01562,312.12502 234.82827,318.72292 236.39177,318.72292 C 236.63183,318.72292 242.37209,313.19663 249.14789,306.44227 C 257.25003,298.36578 261.75296,294.21658 262.30129,294.32218 C 264.55803,294.75679 263.33892,296.37096 253.02119,306.60960 C 247.27266,312.31406 240.97093,318.84511 239.01735,321.12304 C 235.79427,324.88122 235.46537,325.46088 235.46537,327.38304 C 235.46537,328.54810 235.57395,329.50134 235.70666,329.50134 C 235.83937,329.50134 240.96524,324.48570 247.09749,318.35548 z M 502.47608,342.29380 C 498.22750,341.01717 495.93118,339.56463 493.05238,336.33283 C 489.56375,332.41642 488.18486,328.67075 488.12231,322.94060 C 488.08111,319.16655 488.22228,318.52130 489.75905,315.45960 C 491.78830,311.41673 495.38049,307.45089 498.75990,305.52252 C 500.68113,304.42623 502.29266,303.98529 505.80202,303.59570 C 508.30494,303.31785 510.73008,303.21712 511.19122,303.37187 C 516.96374,305.30897 524.52283,310.87647 524.52283,313.19100 C 524.52283,313.61007 524.94289,314.64038 525.45629,315.48057 C 525.96969,316.32075 526.71553,318.77192 527.11372,320.92760 C 527.72842,324.25543 527.74126,325.44626 527.19878,328.81705 C 526.65462,332.19821 526.25702,333.19203 524.51824,335.51708 C 522.28977,338.49693 520.41007,339.90984 516.01238,341.91068 C 513.59383,343.01106 512.50226,343.21011 509.15338,343.16141 C 506.96290,343.12955 503.95811,342.73913 502.47608,342.29380 z M 511.32932,334.36570 C 514.25535,331.40701 516.82251,328.71263 517.03412,328.37819 C 517.24574,328.04376 518.17271,327.15038 519.09406,326.39292 C 520.67376,325.09421 524.03291,321.06375 524.03291,320.46706 C 524.03291,319.67578 522.71864,320.44110 520.50767,322.51987 C 517.93971,324.93429 512.97805,329.64522 510.74461,331.78958 C 510.03782,332.46818 508.93743,333.28369 508.29931,333.60183 C 507.66118,333.91997 507.05828,334.61566 506.95953,335.14782 C 506.67543,336.67886 505.89604,337.34019 504.37580,337.34019 C 502.64040,337.34019 502.42933,335.82040 503.98391,334.51830 C 504.54375,334.04939 509.07163,329.61360 514.04586,324.66100 C 522.70413,316.04039 523.05454,315.61719 522.26066,314.73996 C 521.80457,314.23599 520.82870,313.82365 520.09207,313.82365 C 518.94931,313.82365 518.70554,313.57199 518.43106,312.10890 C 518.19917,310.87284 517.85278,310.39415 517.19024,310.39415 C 516.27432,310.39415 510.13502,315.95167 499.65015,326.27208 C 495.76524,330.09605 494.16853,331.99633 494.26094,332.68587 C 494.53491,334.73005 496.45198,333.76771 500.97225,329.31691 C 503.40143,326.92506 505.50717,324.59558 505.65167,324.14029 C 506.07351,322.81121 516.18353,314.20470 516.96892,314.50608 C 518.36147,315.04045 517.62648,316.77273 514.92538,319.32245 C 507.75330,326.09261 498.55822,335.70993 498.55748,336.44199 C 498.55643,337.47562 499.35740,337.76387 501.37374,337.45550 C 502.80525,337.23657 502.96601,337.33387 502.96601,338.41925 C 502.96601,341.68851 505.11964,340.64468 511.32932,334.36570 z M 513.82757,338.72718 C 517.19180,337.71922 524.45377,329.50408 524.50999,326.64263 C 524.52657,325.79845 518.93479,330.63597 514.26819,335.50296 C 510.54379,339.38727 510.49766,339.72484 513.82757,338.72718 z M 497.99273,323.74469 C 500.40103,321.38691 504.95295,316.95604 508.10811,313.89832 C 512.04104,310.08684 513.68623,308.18027 513.34054,307.83459 C 512.32186,306.81590 510.32528,308.03903 505.59861,312.57736 C 502.93811,315.13185 500.37551,317.22892 499.90396,317.23752 C 499.42786,317.24619 499.04658,317.62559 499.04658,318.09068 C 499.04658,318.55133 498.10960,319.83139 496.96439,320.93526 C 494.00890,323.78407 491.58862,326.96882 491.94316,327.54248 C 492.60065,328.60632 493.78884,327.86039 497.99273,323.74469 z M 494.68303,319.21285 C 496.23205,317.86555 497.84754,316.76321 498.27301,316.76321 C 498.73841,316.76321 499.04658,316.34279 499.04658,315.70787 C 499.04658,315.03026 500.36179,313.40787 502.72104,311.17518 C 504.74200,309.26265 506.39550,307.53287 506.39550,307.33125 C 506.39550,307.12962 505.85509,306.96465 505.19459,306.96465 C 504.43446,306.96465 502.59339,308.13350 500.17857,310.14919 C 498.08026,311.90068 496.22726,313.33372 496.06081,313.33372 C 495.89435,313.33372 494.83454,314.56875 493.70568,316.07824 C 491.79171,318.63755 490.58388,321.66249 491.47593,321.66249 C 491.69081,321.66249 493.13400,320.56015 494.68303,319.21285 z M 470.37841,304.50306 C 469.40319,302.92512 473.65362,296.67617 475.70214,296.67617 C 477.11109,296.67617 477.16776,298.04989 475.82465,299.64609 C 475.12369,300.47913 474.55019,301.48451 474.55019,301.88027 C 474.55019,302.81639 472.35556,305.00494 471.41684,305.00494 C 471.01630,305.00494 470.54901,304.77910 470.37841,304.50306 z M 481.01724,291.67890 C 480.19692,290.85858 480.27332,290.49062 481.50156,289.34634 C 482.88711,288.05549 485.32860,287.98883 485.32860,289.24185 C 485.32860,290.29598 483.37687,292.26682 482.33296,292.26682 C 481.93267,292.26682 481.34059,292.00226 481.01724,291.67890 z M 503.94586,287.84065 C 503.30977,287.41503 503.33883,287.25137 504.16198,286.62334 C 505.45435,285.63732 508.30021,285.67427 508.68694,286.68209 C 508.85248,287.11348 508.68021,287.66127 508.30412,287.89941 C 507.38340,288.48240 504.85399,288.44830 503.94586,287.84065 z M 510.52243,287.69155 C 509.81186,285.83984 512.01513,285.23745 513.49946,286.87761 C 514.17739,287.62672 514.22412,287.85904 513.69787,287.86415 C 513.31928,287.86783 512.51616,288.00308 511.91314,288.16470 C 511.17097,288.36362 510.72167,288.21076 510.52243,287.69155 z M 495.98453,285.06448 C 494.72961,284.74477 494.93851,283.10438 496.35210,282.17816 C 497.02582,281.73673 498.96123,281.26444 500.65302,281.12864 C 503.13471,280.92943 503.86013,281.03974 504.40775,281.69958 C 505.40820,282.90504 504.27980,283.80767 500.99772,284.42732 C 499.52040,284.70624 497.98099,285.01285 497.57680,285.10869 C 497.17261,285.20452 496.45609,285.18462 495.98453,285.06448 z M 469.34212,284.10855 C 468.39028,283.61473 467.02964,283.52122 464.21350,283.75607 C 461.06064,284.01901 460.15555,283.92839 459.11315,283.24538 C 455.77828,281.06029 454.79230,275.48245 457.18613,272.34398 C 458.45789,270.67661 460.96550,269.15159 463.39542,268.56773 C 464.77446,268.23639 466.22141,266.13261 466.22141,264.45889 C 466.22141,263.02930 465.13927,261.93252 463.38954,261.58872 C 461.95244,261.30635 461.57056,261.49575 459.77850,263.37959 C 458.17902,265.06100 457.61337,265.38476 456.97620,264.98354 C 455.07148,263.78418 456.08452,260.53771 459.02910,258.40466 C 461.30745,256.75424 463.30709,256.60322 465.72336,257.89908 C 469.11326,259.71710 469.75847,261.85053 470.38730,273.32060 C 470.65560,278.21445 470.81564,278.50276 473.20471,278.39645 C 475.19743,278.30777 475.29133,278.36807 475.43350,279.82772 C 475.53751,280.89559 475.20926,281.79445 474.33653,282.83163 C 472.85823,284.58849 471.12255,285.03226 469.34212,284.10855 z M 464.30708,279.75019 C 466.07336,278.83681 466.71134,277.33543 466.71134,274.09221 C 466.71134,271.05042 466.11746,270.77935 463.12168,272.45371 C 459.58367,274.43115 458.79496,277.04606 461.05490,279.30599 C 462.47492,280.72602 462.43150,280.72009 464.30708,279.75019 z M 339.30988,277.47053 C 335.37053,274.46589 334.97007,271.98502 334.49400,247.63605 C 334.43523,244.63065 334.30810,244.27784 332.67964,242.60107 C 330.75377,240.61807 330.72919,240.08854 332.50198,238.77363 C 333.49924,238.03396 333.99761,237.97205 335.52738,238.39781 C 338.16650,239.13233 338.52894,240.18204 338.56430,247.19345 L 338.59519,253.31755 L 340.79987,253.18404 C 343.56785,253.01642 346.22796,254.47882 348.23313,257.27051 C 349.58777,259.15649 349.68878,259.64377 350.11009,266.32578 C 350.63166,274.59811 350.31391,275.62462 346.67079,277.43662 C 342.85262,279.33569 341.76186,279.34072 339.30988,277.47053 z M 344.92853,272.88040 C 346.16917,271.63975 346.37156,269.84769 345.85117,264.71053 C 345.29599,259.22986 344.86525,258.51955 341.85182,258.11537 C 339.10175,257.74650 338.30247,258.49333 338.38878,261.35112 C 338.68492,271.15631 339.51279,273.64956 342.47242,273.64956 C 343.40024,273.64956 344.50549,273.30344 344.92853,272.88040 z M 389.05777,226.53600 C 388.51885,226.23867 387.52674,225.50518 386.85309,224.90602 C 385.60411,223.79516 383.80479,222.78704 379.01425,220.51407 C 377.53221,219.81090 375.54801,218.80063 374.60489,218.26904 C 368.02471,214.56005 347.97519,207.01936 344.69377,207.01936 C 343.71617,207.01936 341.28266,206.61424 339.28597,206.11910 C 330.39056,203.91323 330.45112,203.91876 318.15006,204.18891 C 311.61050,204.33253 305.99677,204.35249 305.67509,204.23327 C 305.35342,204.11405 304.84298,203.26730 304.54077,202.35161 C 304.05136,200.86868 304.18858,200.19363 305.79628,196.17531 C 307.71092,191.38982 307.93202,190.72073 309.48358,185.01693 C 310.02669,183.02036 310.90147,180.44196 311.42755,179.28716 C 312.66038,176.58093 312.63506,175.25941 311.32362,173.86345 C 310.29526,172.76881 310.29015,172.70487 311.15459,171.74968 C 311.64486,171.20793 312.54339,170.76469 313.15132,170.76469 C 314.39311,170.76469 316.63416,173.14419 317.08531,174.94172 C 317.35918,176.03288 315.74146,181.66713 314.83824,182.76792 C 314.61714,183.03738 313.66425,185.79323 312.72070,188.89202 C 311.77716,191.99082 310.76425,195.14683 310.46979,195.90539 C 310.17533,196.66395 309.93459,197.98675 309.93480,198.84496 L 309.93518,200.40533 L 319.36591,200.47081 C 328.46829,200.53401 339.33943,201.56894 341.17683,202.54720 C 341.64315,202.79548 343.78843,203.25903 345.94411,203.57731 C 348.09979,203.89559 350.67885,204.57979 351.67535,205.09775 C 352.67184,205.61571 354.06120,206.03950 354.76281,206.03950 C 355.46442,206.03950 356.85379,206.45996 357.85028,206.97385 C 358.84678,207.48774 360.98490,208.40516 362.60166,209.01255 C 367.55145,210.87211 380.50334,217.32906 382.79983,219.08200 C 383.99256,219.99244 385.19094,220.73734 385.46289,220.73734 C 386.22342,220.73734 391.20760,224.32453 391.50550,225.08631 C 391.76191,225.74196 390.96357,227.12147 390.34508,227.09150 C 390.17598,227.08331 389.59669,226.83334 389.05777,226.53600 z "
       style="fill:#000000"
       id="path1344" />
    <path
       d="M 120.11216,336.28369 C 143.45594,336.77940 173.51158,336.82384 184.83087,336.15797 C 200.84121,336.16225 201.46596,323.05842 201.46596,323.05842 C 201.46596,323.05842 209.63998,256.40102 268.25197,255.65691 C 326.90916,254.91222 336.15059,306.61985 336.05150,310.02967 C 334.27704,346.61197 353.14667,336.01057 361.34170,336.31129 C 368.46300,336.57261 402.34291,336.59116 402.34291,336.59116 L 396.31155,336.59116"
       style="fill:none;fill-opacity:0.75000000;fill-rule:evenodd;stroke:#000000;stroke-width:3.9000001;stroke-linecap:round;stroke-linejoin:round;stroke-miterlimit:4.0999999;stroke-dasharray:11.700000 11.700000 ;stroke-dashoffset:0.00000000;stroke-opacity:1.0000000"
       id="path2180" />
  </g>
</svg>
