<svg width="325" height="662" xmlns="http://www.w3.org/2000/svg"><div xmlns="" id="saka-gui-root"><div><div><style/></div></div></div>
  <g fill="none" fill-rule="evenodd">
    <path d="M3.727 284H2a2 2 0 0 1-2-2v-79a2 2 0 0 1 2-2h1.727V37.825c0-19.641 15.743-35.657 35.38-35.995C84.633 1.047 125.907.656 162.928.656c37.022 0 78.295.391 123.82 1.174 19.638.338 35.38 16.354 35.38 35.995V111H323a2 2 0 0 1 2 2v33a2 2 0 0 1-2 2h-.872v54H323a1 1 0 0 1 1 1v50a1 1 0 0 1-1 1h-.872v370.447c0 19.565-15.627 35.549-35.187 35.99-38.73.876-80.067 1.313-124.014 1.313-43.946 0-85.284-.437-124.013-1.312-19.56-.442-35.187-16.426-35.187-35.991V284z" fill="#25242B"/>
    <path d="M46.317 5.898h230.366c13.448 0 18.324 1.4 23.24 4.03 4.917 2.63 8.776 6.488 11.405 11.404 2.63 4.916 4.03 9.793 4.03 23.24v572.753c0 13.448-1.4 18.325-4.03 23.241-2.63 4.917-6.488 8.775-11.404 11.404-4.917 2.63-9.793 4.03-23.241 4.03H46.317c-13.448 0-18.324-1.4-23.24-4.03-4.917-2.629-8.776-6.487-11.405-11.404-2.63-4.916-4.03-9.793-4.03-23.24V44.572c0-13.448 1.4-18.325 4.03-23.241 2.63-4.916 6.488-8.775 11.404-11.404 4.917-2.63 9.793-4.03 23.241-4.03z" fill="#01071C"/>
    <ellipse fill="#323232" cx="160.657" cy="21.655" rx="5.657" ry="5.655"/>
    <path d="M45.24 12h74.763c21.886 0 21.886 21.256 40.497 21.256 18.61 0 18.61-21.256 40.55-21.256h78.71c10.698 0 14.577 1.114 18.489 3.206 3.91 2.091 6.98 5.16 9.072 9.072 2.091 3.911 3.205 7.79 3.205 18.489v562.466c0 10.699-1.114 14.578-3.205 18.49-2.092 3.91-5.161 6.98-9.072 9.071-3.912 2.092-7.791 3.206-18.49 3.206H45.24c-10.698 0-14.577-1.114-18.489-3.206-3.91-2.091-6.98-5.16-9.072-9.072-2.091-3.911-3.205-7.79-3.205-18.489V42.767c0-10.699 1.114-14.578 3.205-18.49 2.092-3.91 5.161-6.98 9.072-9.071C30.663 13.114 34.542 12 45.241 12z" fill="#ffffff"/>
  </g>
</svg>
