<?xml version="1.0" encoding="UTF-8"?>
<!-- Generator: Adobe Illustrator 21.1.0, SVG Export Plug-In . SVG Version: 6.00 Build 0)  -->
<svg version="1.1" id="Icons" xmlns="http://www.w3.org/2000/svg" xmlns:xlink="http://www.w3.org/1999/xlink" x="0px" y="0px" viewBox="0 0 48 48" style="enable-background:new 0 0 48 48;" xml:space="preserve">
<style type="text/css">
	.st0{fill:#FFE500;}
	.st1{fill:#FFA694;}
	.st2{fill:#FFF48C;}
	.st3{fill:none;stroke:#45413C;stroke-linecap:round;stroke-linejoin:round;stroke-miterlimit:10;}
	.st4{fill:#FF866E;}
	.st5{opacity:0.15;fill:#45413C;}
	.st6{fill:none;stroke:#45413C;stroke-linecap:round;stroke-miterlimit:10;}
	.st7{fill:#FF6242;}
	.st8{fill:#FFB0CA;stroke:#45413C;stroke-linecap:round;stroke-linejoin:round;stroke-miterlimit:10;}
	.st9{fill:#FF866E;stroke:#45413C;stroke-linecap:round;stroke-linejoin:round;stroke-miterlimit:10;}
	.st10{fill:#FFFFFF;stroke:#45413C;stroke-linecap:round;stroke-linejoin:round;stroke-miterlimit:10;}
	.st11{fill:#FFE500;stroke:#45413C;stroke-linecap:round;stroke-linejoin:round;stroke-miterlimit:10;}
	.st12{fill:#45413C;stroke:#45413C;stroke-linecap:round;stroke-linejoin:round;stroke-miterlimit:10;}
	.st13{fill:#00B8F0;}
	.st14{fill:#4ACFFF;}
	.st15{fill:#B89558;stroke:#45413C;stroke-linecap:round;stroke-linejoin:round;stroke-miterlimit:10;}
	.st16{fill:#B89558;}
	.st17{fill:#F7E5C6;}
	.st18{fill:#DEBB7E;}
	.st19{fill:#947746;stroke:#45413C;stroke-miterlimit:10;}
	.st20{fill:#FF866E;stroke:#45413C;stroke-miterlimit:10;}
	.st21{fill:#FFF5E3;stroke:#45413C;stroke-linecap:round;stroke-linejoin:round;stroke-miterlimit:10;}
	.st22{fill:#DEBB7E;stroke:#45413C;stroke-linecap:round;stroke-linejoin:round;stroke-miterlimit:10;}
	.st23{fill:#B89558;stroke:#45413C;stroke-miterlimit:10;}
	.st24{fill:#FFAA54;}
	.st25{fill:#724F3D;}
	.st26{fill:#A86C4D;}
	.st27{fill:#FFDA8F;}
	.st28{fill:#FFE9BD;}
	.st29{fill:#FFBE3D;}
	.st30{fill:#614B44;}
	.st31{fill:#947063;}
	.st32{fill:#D18660;}
	.st33{fill:#E09F7E;}
	.st34{fill:#BD704A;}
	.st35{fill:#FFDA8F;stroke:#45413C;stroke-linecap:round;stroke-linejoin:round;stroke-miterlimit:10;}
	.st36{fill:#D18660;stroke:#45413C;stroke-miterlimit:10;}
	.st37{fill:#DE926A;}
	.st38{fill:#FFCEBF;stroke:#45413C;stroke-linecap:round;stroke-linejoin:round;stroke-miterlimit:10;}
	.st39{fill:#FFB59E;}
	.st40{fill:#E0E0E0;}
	.st41{fill:#FFFFFF;}
	.st42{fill:#FFCEBF;}
	.st43{fill:#FFDCD1;}
	.st44{fill:#F0F0F0;stroke:#45413C;stroke-linecap:round;stroke-linejoin:round;stroke-miterlimit:10;}
	.st45{fill:#00DFEB;stroke:#45413C;stroke-linecap:round;stroke-linejoin:round;stroke-miterlimit:10;}
	.st46{fill:#EBCB00;}
	.st47{fill:#87898C;stroke:#45413C;stroke-linecap:round;stroke-linejoin:round;stroke-miterlimit:10;}
	.st48{fill:#C0DCEB;stroke:#45413C;stroke-linecap:round;stroke-linejoin:round;stroke-miterlimit:10;}
	.st49{fill:#E8F4FA;}
	.st50{fill:#80DDFF;}
	.st51{fill:#FF6196;}
	.st52{fill:#FF6196;stroke:#45413C;stroke-linecap:round;stroke-linejoin:round;stroke-miterlimit:10;}
	.st53{fill:#724F3D;stroke:#45413C;stroke-linecap:round;stroke-linejoin:round;stroke-miterlimit:10;}
	.st54{fill:#656769;stroke:#45413C;stroke-linecap:round;stroke-linejoin:round;stroke-miterlimit:10;}
	.st55{fill:#DAEDF7;stroke:#45413C;stroke-linecap:round;stroke-linejoin:round;stroke-miterlimit:10;}
	.st56{fill:#F0D5A8;}
	.st57{fill:#DAEDF7;}
	.st58{fill:#A86C4D;stroke:#45413C;stroke-linecap:round;stroke-linejoin:round;stroke-miterlimit:10;}
	.st59{fill:#FF6242;stroke:#45413C;stroke-linecap:round;stroke-linejoin:round;stroke-miterlimit:10;}
	.st60{fill:#009FD9;stroke:#45413C;stroke-linecap:round;stroke-linejoin:round;stroke-miterlimit:10;}
	.st61{fill:#656769;}
	.st62{fill:#525252;}
	.st63{fill:#525252;stroke:#45413C;stroke-linecap:round;stroke-linejoin:round;stroke-miterlimit:10;}
	.st64{fill:#6DD627;}
	.st65{fill:#009FD9;}
	.st66{fill:#ADC4D9;}
	.st67{fill:#C0DCEB;}
	.st68{fill:#FF8A14;}
	.st69{fill:#EB6D00;}
	.st70{fill:#00DBA8;stroke:#45413C;stroke-linecap:round;stroke-linejoin:round;stroke-miterlimit:10;}
	.st71{fill:#B8ECFF;}
	.st72{fill:#FF87AF;}
	.st73{fill:#80DDFF;stroke:#45413C;stroke-linecap:round;stroke-linejoin:round;stroke-miterlimit:10;}
	.st74{fill:#00DBA8;}
	.st75{fill:#00F5BC;}
	.st76{fill:#E5FEFF;stroke:#45413C;stroke-linecap:round;stroke-linejoin:round;stroke-miterlimit:10;}
	.st77{fill:#46B000;}
	.st78{fill:#46B000;stroke:#45413C;stroke-linecap:round;stroke-linejoin:round;stroke-miterlimit:10;}
	.st79{fill:#BF8256;stroke:#45413C;stroke-linecap:round;stroke-linejoin:round;stroke-miterlimit:10;}
	.st80{fill:#ADC4D9;stroke:#45413C;stroke-linecap:round;stroke-linejoin:round;stroke-miterlimit:10;}
	.st81{fill:#BDBEC0;}
	.st82{fill:#F0F0F0;}
	.st83{fill:#FFB59E;stroke:#45413C;stroke-linecap:round;stroke-linejoin:round;stroke-miterlimit:10;}
	.st84{fill:#45413C;}
	.st85{fill:#E04122;}
	.st86{fill:none;stroke:#48CF3E;stroke-linecap:round;stroke-linejoin:round;stroke-miterlimit:10;}
	.st87{fill:none;stroke:#FF4064;stroke-linecap:round;stroke-linejoin:round;stroke-miterlimit:10;}
	.st88{fill:none;stroke:#FFB700;stroke-linecap:round;stroke-linejoin:round;stroke-miterlimit:10;}
	.st89{fill:#BF8DF2;}
	.st90{fill:#9F5AE5;}
	.st91{fill:#00AD85;}
	.st92{fill:#8CA4B8;}
	.st93{fill:#627B8C;}
	.st94{fill:#627B8C;stroke:#45413C;stroke-linecap:round;stroke-linejoin:round;stroke-miterlimit:10;}
	.st95{fill:#87898C;}
	.st96{fill:#FF8A14;stroke:#45413C;stroke-linecap:round;stroke-linejoin:round;stroke-miterlimit:10;}
	.st97{fill:#E04122;stroke:#45413C;stroke-linecap:round;stroke-linejoin:round;stroke-miterlimit:10;}
	.st98{fill:#EBCB00;stroke:#45413C;stroke-linecap:round;stroke-linejoin:round;stroke-miterlimit:10;}
	.st99{fill:#6DD627;stroke:#45413C;stroke-linecap:round;stroke-linejoin:round;stroke-miterlimit:10;}
	.st100{fill:#FFB0CA;}
	.st101{fill:#FFB59E;stroke:#FFAA54;stroke-miterlimit:10;}
	.st102{fill:#FF87AF;stroke:#45413C;stroke-linecap:round;stroke-linejoin:round;stroke-miterlimit:10;}
</style>
<g id="XMLID_1261_">
	<circle id="XMLID_1488_" class="st15" cx="37" cy="18.5" r="6.5"/>
	<circle id="XMLID_1487_" class="st8" cx="37" cy="18.5" r="4"/>
	<circle id="XMLID_1486_" class="st15" cx="11" cy="18.5" r="6.5"/>
	<circle id="XMLID_1485_" class="st8" cx="11" cy="18.5" r="4"/>
	<path id="XMLID_1484_" class="st16" d="M38.5,22.9V16C38.5,8,32,1.5,24,1.5S9.5,8,9.5,16v6.9C6.7,24.8,5,27.3,5,30   c0,6.1,8.5,11,19,11s19-4.9,19-11C43,27.3,41.3,24.8,38.5,22.9z"/>
	<path id="XMLID_1279_" class="st17" d="M34.3,39.2c2-2.4,3.2-5.4,3.2-8.7c0-2.9-0.9-5.6-2.5-7.8V14c0-3-2.5-5.5-5.5-5.5   S24,11,24,14c0-3-2.5-5.5-5.5-5.5S13,11,13,14v8.7c-1.6,2.2-2.5,4.9-2.5,7.8c0,3.3,1.2,6.4,3.2,8.7c3,1.1,6.5,1.8,10.3,1.8   S31.3,40.4,34.3,39.2z"/>
	<g id="XMLID_1277_">
		<path id="XMLID_1278_" class="st18" d="M24,5c8,0,14.5,6.5,14.5,14.5V16C38.5,8,32,1.5,24,1.5S9.5,8,9.5,16v3.5    C9.5,11.5,16,5,24,5z"/>
	</g>
	<path id="XMLID_1276_" class="st3" d="M38.5,22.9V16C38.5,8,32,1.5,24,1.5S9.5,8,9.5,16v6.9C6.7,24.8,5,27.3,5,30   c0,6.1,8.5,11,19,11s19-4.9,19-11C43,27.3,41.3,24.8,38.5,22.9z"/>
	<ellipse id="XMLID_1275_" class="st5" cx="24" cy="45.5" rx="16" ry="1.5"/>
	<path id="XMLID_1274_" class="st3" d="M34.3,39.2c2-2.4,3.2-5.4,3.2-8.7c0-2.9-0.9-5.6-2.5-7.8V14c0-3-2.5-5.5-5.5-5.5S24,11,24,14   c0-3-2.5-5.5-5.5-5.5S13,11,13,14v8.7c-1.6,2.2-2.5,4.9-2.5,7.8c0,3.3,1.2,6.4,3.2,8.7c3,1.1,6.5,1.8,10.3,1.8S31.3,40.4,34.3,39.2   z"/>
	<path id="XMLID_1632_" class="st19" d="M27.7,27.1c0,1-1.7,2.6-3.7,2.6s-3.7-1.6-3.7-2.6c0-1,1.7-1.8,3.7-1.8S27.7,26.1,27.7,27.1z   "/>
	<path id="XMLID_1631_" class="st20" d="M30.5,34.5c0,0.7-2.9,2.6-6.5,2.6s-6.5-1.8-6.5-2.6c0-0.7,2.9-0.3,6.5-0.3   S30.5,33.8,30.5,34.5z"/>
	<g id="XMLID_1265_">
		<path id="XMLID_1267_" class="st21" d="M40,20.9l-1.6,3.6l5.3,8.2c1.4,2.2,0.8,5.1-1.4,6.5c-2.2,1.4-5.1,0.8-6.5-1.4l-4.5-6.9    c-3.6-2.2-6.1-6.2-8.4-10.7c-0.3-0.5-0.3-1.1,0.1-1.5c0.5-0.6,1.4-0.7,2-0.1l4,3.9L25.5,17c-0.4-0.6-0.3-1.4,0.2-1.9    c0.7-0.7,1.9-0.6,2.4,0.2l3.5,5.4l-2.8-6.6c-0.3-0.7,0-1.5,0.6-2c0.8-0.5,1.8-0.2,2.3,0.6l4.3,7.9l0.8-1.4    c0.5-0.9,1.6-1.1,2.5-0.6C40,19.1,40.4,20,40,20.9z"/>
		<path id="XMLID_1266_" class="st22" d="M31.9,31.7l3.7,0.8l0-3.5l3.6,1.3l0.8-3.5l3.8,5.9c1.4,2.2,0.8,5.1-1.4,6.5    c-2.2,1.4-5.1,0.8-6.5-1.4L31.9,31.7z"/>
	</g>
	<g id="XMLID_1262_">
		<path id="XMLID_1264_" class="st21" d="M8,20.9l1.6,3.6l-5.3,8.2c-1.4,2.2-0.8,5.1,1.4,6.5c2.2,1.4,5.1,0.8,6.5-1.4l4.5-6.9    c3.6-2.2,6.1-6.2,8.4-10.7c0.3-0.5,0.3-1.1-0.1-1.5c-0.5-0.6-1.4-0.7-2-0.1l-4,3.9l3.5-5.4c0.4-0.6,0.3-1.4-0.2-1.9    c-0.7-0.7-1.9-0.6-2.4,0.2l-3.5,5.4l2.8-6.6c0.3-0.7,0-1.5-0.6-2c-0.8-0.5-1.8-0.2-2.3,0.6L12,20.6l-0.8-1.4    c-0.5-0.9-1.6-1.1-2.5-0.6C8,19.1,7.6,20,8,20.9z"/>
		<path id="XMLID_1263_" class="st22" d="M16.1,31.7l-3.7,0.8l0-3.5l-3.6,1.3L8,26.8l-3.8,5.9c-1.4,2.2-0.8,5.1,1.4,6.5    c2.2,1.4,5.1,0.8,6.5-1.4L16.1,31.7z"/>
	</g>
</g>
</svg>