<svg xmlns="http://www.w3.org/2000/svg" viewBox="0 0 1060 230" font-family="Helvetica, Arial, sans-serif">
  <defs>
    <marker id="arrow" markerWidth="10" markerHeight="8" refX="8" refY="3" orient="auto">
      <path d="M0,0 L8,3 L0,6 Z" fill="#444"/>
    </marker>
  </defs>

  <rect x="5" y="85" width="135" height="60" rx="8" fill="#fdfdfd" stroke="#444" stroke-width="2"/>
  <text x="72.5" y="120" text-anchor="middle" font-size="15" fill="#333">Research</text>

  <line x1="143" y1="115" x2="158" y2="115" stroke="#444" stroke-width="2" marker-end="url(#arrow)"/>

  <rect x="164" y="20" width="250" height="190" rx="10" fill="#fdfdfd" stroke="#444" stroke-width="3"/>
  <text x="289" y="105" text-anchor="middle" font-size="30" font-weight="bold" fill="#333">Define</text>
  <text x="289" y="142" text-anchor="middle" font-size="30" font-weight="bold" fill="#333">Requirements</text>

  <line x1="417" y1="115" x2="432" y2="115" stroke="#444" stroke-width="2" marker-end="url(#arrow)"/>

  <rect x="438" y="85" width="135" height="60" rx="8" fill="#fdfdfd" stroke="#444" stroke-width="2"/>
  <text x="505.5" y="120" text-anchor="middle" font-size="15" fill="#333">Plan</text>

  <line x1="576" y1="115" x2="591" y2="115" stroke="#444" stroke-width="2" marker-end="url(#arrow)"/>

  <rect x="597" y="85" width="135" height="60" rx="8" fill="#fdfdfd" stroke="#444" stroke-width="2"/>
  <text x="664.5" y="108" text-anchor="middle" font-size="15" fill="#333">Agent</text>
  <text x="664.5" y="128" text-anchor="middle" font-size="15" fill="#333">Implementation</text>

  <line x1="735" y1="115" x2="750" y2="115" stroke="#444" stroke-width="2" marker-end="url(#arrow)"/>

  <rect x="756" y="85" width="135" height="60" rx="8" fill="#fdfdfd" stroke="#444" stroke-width="2"/>
  <text x="823.5" y="120" text-anchor="middle" font-size="15" fill="#333">Review</text>

  <line x1="894" y1="115" x2="909" y2="115" stroke="#444" stroke-width="2" marker-end="url(#arrow)"/>

  <rect x="915" y="85" width="135" height="60" rx="8" fill="#fdfdfd" stroke="#444" stroke-width="2"/>
  <text x="982.5" y="120" text-anchor="middle" font-size="15" fill="#333">Ship</text>

  <g stroke="#d62828" stroke-width="9" stroke-linecap="round" opacity="0.85">
    <line x1="430" y1="73" x2="581" y2="157"/>
    <line x1="581" y1="73" x2="430" y2="157"/>
  </g>
</svg>
